<?xml version="1.0" encoding="utf-8"?>
<!-- Generator: Adobe Illustrator 16.0.0, SVG Export Plug-In . SVG Version: 6.00 Build 0)  -->
<!DOCTYPE svg PUBLIC "-//W3C//DTD SVG 1.1//EN" "http://www.w3.org/Graphics/SVG/1.1/DTD/svg11.dtd">
<svg version="1.1" xmlns="http://www.w3.org/2000/svg" xmlns:xlink="http://www.w3.org/1999/xlink" x="0px" y="0px" width="40px"
	 height="40px" viewBox="0 0 40 40" enable-background="new 0 0 40 40" xml:space="preserve">
<g id="Layer_1" display="none">
</g>
<g id="Layer_2" display="none">
	<g display="inline">
		<path fill="#2196F3" d="M20,39.5c10.752,0,19.5-8.748,19.5-19.5C39.5,9.248,30.752,0.5,20,0.5S0.5,9.248,0.5,20
			C0.5,30.752,9.248,39.5,20,39.5"/>
		<path fill="#FFFFFF" d="M20,30.4c-0.215,0-0.416-0.106-0.536-0.283l-9.75-14.3c-0.136-0.199-0.151-0.457-0.038-0.671
			c0.112-0.212,0.333-0.346,0.574-0.346h19.5c0.242,0,0.462,0.133,0.574,0.346c0.051,0.096,0.076,0.201,0.076,0.305
			c0,0.128-0.038,0.257-0.113,0.366l-9.75,14.299C20.417,30.294,20.216,30.4,20,30.4"/>
	</g>
</g>
<g id="Layer_3" display="none">
	<g display="inline">
		<g>
			<path fill="#FFFFFF" d="M7.375,0.5c-0.852,0-1.537,0.869-1.537,1.94v35.119c0,1.073,0.685,1.941,1.537,1.941
				c0.847,0,1.537-0.868,1.537-1.941V2.44C8.913,1.369,8.223,0.5,7.375,0.5z M29.333,11.119c-0.269-0.455-0.264-1.065,0.007-1.478
				c1.452-2.19,2.948-3.986,4.359-5.42c1.244-1.263-0.376-2.184-0.742-2.376c-7.404-3.934-14.802,4.298-22.201,1.792v19.433
				c7.411,2.508,14.82-5.762,22.234-1.774c0.361,0.19,0.689,0.143,0.849-0.157c0.16-0.303,0.122-0.821-0.102-1.328
				C32.269,16.461,30.801,13.624,29.333,11.119z"/>
		</g>
	</g>
</g>
<g id="Layer_4" display="none">
	<path display="inline" fill="#FFFFFF" d="M17.732,36.835l0.709,1.585c0.296,0.661,0.899,1.08,1.559,1.08s1.264-0.419,1.559-1.08
		l1.499-3.359c1.827-4.095,4.077-8.059,6.257-11.893l0.992-1.748c1.229-2.176,1.877-4.689,1.877-7.27
		c0-3.884-1.484-7.596-4.073-10.186c-2.586-2.587-6.064-3.828-9.535-3.371C13.16,1.283,8.688,6.169,7.936,12.21
		c-0.442,3.581,0.354,7.135,2.246,10.013C13.137,26.705,15.439,31.691,17.732,36.835z M20,8.3c2.879,0,5.223,2.625,5.223,5.85
		C25.223,17.376,22.879,20,20,20s-5.222-2.624-5.222-5.851C14.778,10.925,17.121,8.3,20,8.3z"/>
</g>
<g id="Layer_5" display="none">
	<g display="inline">
		<path fill="#FFFFFF" d="M13.45,0.5l8.734,8.633h-6.5v15.234h-4.367V9.133h-6.5L13.45,0.5z M28.684,30.867h6.5L26.449,39.5
			l-8.633-8.633h6.5V15.633h4.367V30.867z"/>
	</g>
</g>
<g id="Layer_6" display="none">
	<g display="inline">
		<path fill="#E3F1FD" d="M35.807,18.256h3.651v3.487h-3.651c-0.388,3.704-1.896,6.872-4.521,9.501
			c-2.629,2.625-5.797,4.16-9.501,4.604V39.5h-3.568v-3.651c-3.651-0.444-6.804-1.979-9.459-4.604
			c-2.655-2.629-4.177-5.797-4.563-9.501H0.542v-3.487h3.651c0.387-3.706,1.908-6.872,4.563-9.5
			c2.655-2.627,5.808-4.162,9.459-4.605V0.5h3.568v3.651c3.704,0.443,6.872,1.978,9.501,4.605
			C33.91,11.384,35.419,14.551,35.807,18.256z M11.246,28.755c2.433,2.406,5.365,3.609,8.795,3.609c3.428,0,6.347-1.203,8.754-3.609
			c2.406-2.407,3.609-5.326,3.609-8.756c0-3.429-1.203-6.348-3.609-8.754c-2.407-2.406-5.326-3.609-8.754-3.609
			c-3.43,0-6.362,1.203-8.795,3.609c-2.435,2.406-3.651,5.325-3.651,8.754C7.595,23.429,8.812,26.348,11.246,28.755z M14.98,15.021
			c1.382-1.382,3.055-2.074,5.02-2.074c1.963,0,3.636,0.692,5.021,2.074c1.381,1.384,2.074,3.043,2.074,4.979
			c0,1.937-0.693,3.596-2.074,4.98c-1.385,1.381-3.058,2.074-5.021,2.074c-1.965,0-3.638-0.693-5.02-2.074
			c-1.384-1.385-2.074-3.044-2.074-4.98C12.906,18.064,13.596,16.404,14.98,15.021z"/>
	</g>
</g>
<g id="Layer_29" display="none">
	<g display="inline">
		<path fill="#666666" d="M35.807,18.256h3.651v3.487h-3.651c-0.388,3.704-1.896,6.872-4.521,9.501
			c-2.629,2.625-5.797,4.16-9.501,4.604V39.5h-3.568v-3.651c-3.651-0.444-6.804-1.979-9.459-4.604
			c-2.655-2.629-4.177-5.797-4.563-9.501H0.542v-3.487h3.651c0.387-3.706,1.908-6.872,4.563-9.5
			c2.655-2.627,5.808-4.162,9.459-4.605V0.5h3.568v3.651c3.704,0.443,6.872,1.978,9.501,4.605
			C33.91,11.384,35.419,14.551,35.807,18.256z M11.246,28.755c2.433,2.406,5.365,3.609,8.795,3.609c3.428,0,6.347-1.203,8.754-3.609
			c2.406-2.407,3.609-5.326,3.609-8.756c0-3.429-1.203-6.348-3.609-8.754c-2.407-2.406-5.326-3.609-8.754-3.609
			c-3.43,0-6.362,1.203-8.795,3.609c-2.435,2.406-3.651,5.325-3.651,8.754C7.595,23.429,8.812,26.348,11.246,28.755z M14.98,15.021
			c1.382-1.382,3.055-2.074,5.02-2.074c1.963,0,3.636,0.692,5.021,2.074c1.381,1.384,2.074,3.043,2.074,4.979
			c0,1.937-0.693,3.596-2.074,4.98c-1.385,1.381-3.058,2.074-5.021,2.074c-1.965,0-3.638-0.693-5.02-2.074
			c-1.384-1.385-2.074-3.044-2.074-4.98C12.906,18.064,13.596,16.404,14.98,15.021z"/>
	</g>
</g>
<g id="Layer_7" display="none">
	<g display="inline">
		<path fill="#1565C0" d="M35.573,4.382c1.096,0,2.022,0.381,2.785,1.142c0.76,0.763,1.142,1.69,1.142,2.786v23.382
			c0,1.096-0.382,2.024-1.142,2.785c-0.763,0.763-1.689,1.142-2.785,1.142H4.428c-1.096,0-2.025-0.379-2.786-1.142
			C0.879,33.716,0.5,32.787,0.5,31.691V8.309c0-1.096,0.379-2.023,1.142-2.786c0.76-0.76,1.689-1.142,2.786-1.142H35.573z
			 M35.573,12.237V8.309l-15.619,9.773L4.428,8.309v3.928l15.527,9.681L35.573,12.237z"/>
	</g>
</g>
<g id="Layer_8" display="none">
	<g display="inline">
		<path fill="#1565C0" d="M33.654,12.236c1.583,0,2.953,0.564,4.11,1.69c1.155,1.128,1.735,2.512,1.735,4.156v11.69h-7.854v7.764
			H8.264v-7.764H0.5v-11.69c0-1.644,0.562-3.028,1.689-4.156c1.126-1.126,2.512-1.69,4.156-1.69H33.654z M31.646,2.464v7.763H8.264
			V2.464H31.646z M27.81,33.609v-9.682H12.191v9.682H27.81z M32.239,19.406C32.634,19.804,33.091,20,33.609,20
			c0.516,0,0.973-0.196,1.369-0.594c0.396-0.395,0.594-0.852,0.594-1.37c0-0.516-0.198-0.973-0.594-1.37
			c-0.396-0.395-0.854-0.594-1.369-0.594c-0.519,0-0.976,0.199-1.37,0.594c-0.397,0.397-0.594,0.854-0.594,1.37
			C31.646,18.555,31.842,19.011,32.239,19.406z"/>
	</g>
</g>
<g id="Layer_10" display="none">
	<g display="inline">
		<path fill="#888888" d="M6.176,6.222C9.99,2.409,14.598,0.5,20,0.5c5.401,0,10.01,1.909,13.824,5.722
			c3.816,3.815,5.722,8.409,5.722,13.779c0,5.371-1.905,9.967-5.722,13.777C30.01,37.595,25.401,39.5,20,39.5
			c-5.402,0-10.01-1.905-13.824-5.722c-3.814-3.811-5.722-8.406-5.722-13.777C0.454,14.631,2.361,10.038,6.176,6.222z
			 M16.108,10.205v19.591l9.705-9.795L16.108,10.205z"/>
	</g>
</g>
<g id="Layer_11" display="none">
	<g display="inline">
		<path fill="#888888" d="M0.5,13.124V3.991h9.131v9.132H0.5z M0.5,24.62v-9.24h9.131v9.24H0.5z M0.5,36.009v-9.133h9.131v9.133H0.5
			z M11.994,3.991H39.5v9.132H11.994V3.991z M11.994,24.62v-9.24H39.5v9.24H11.994z M11.994,36.009v-9.133H39.5v9.133H11.994z"/>
	</g>
</g>
<g id="Layer_13" display="none">
	<g display="inline">
		<path fill="#BBDEFB" d="M28.417,25.071L39.5,36.154L36.154,39.5L25.071,28.417V26.64l-0.628-0.628
			c-2.718,2.301-5.854,3.451-9.41,3.451c-4.043,0-7.476-1.412-10.299-4.235C1.911,22.405,0.5,18.989,0.5,14.981
			c0-4.008,1.411-7.424,4.234-10.247C7.558,1.912,10.974,0.5,14.981,0.5s7.424,1.412,10.246,4.234
			c2.823,2.823,4.235,6.256,4.235,10.299c0,3.555-1.15,6.692-3.451,9.41l0.628,0.628H28.417z M7.924,22.144
			c1.951,1.951,4.321,2.928,7.109,2.928s5.158-0.977,7.11-2.928c1.951-1.952,2.928-4.322,2.928-7.11c0-2.789-0.977-5.158-2.928-7.11
			c-1.952-1.952-4.322-2.928-7.11-2.928S9.875,5.972,7.924,7.924c-1.952,1.952-2.928,4.321-2.928,7.11
			C4.996,17.822,5.972,20.192,7.924,22.144z"/>
	</g>
</g>
<g id="Layer_14" display="none">
	<g display="inline">
		<path fill="#FFFFFF" d="M39.5,4.478L23.848,20L39.5,35.521l-3.913,3.913L19.935,23.913L4.413,39.435L0.5,35.521L16.021,20
			L0.5,4.478l3.913-3.913l15.521,15.521L35.587,0.565L39.5,4.478z"/>
	</g>
</g>
<g id="Layer_30" display="none">
	<g display="inline">
		<path fill="#767676" d="M39.5,4.478L23.848,20L39.5,35.521l-3.913,3.913L19.935,23.913L4.413,39.435L0.5,35.521L16.021,20
			L0.5,4.478l3.913-3.913l15.521,15.521L35.587,0.565L39.5,4.478z"/>
	</g>
</g>
<g id="Layer_12" display="none">
	<g display="inline">
		<path d="M35.031,4.814L39.5,17.815v17.37c0,0.541-0.22,1.032-0.66,1.473c-0.439,0.439-0.931,0.66-1.473,0.66h-2.234
			c-0.542,0-1.032-0.221-1.473-0.66c-0.44-0.44-0.66-0.932-0.66-1.473v-2.234H7v2.234c0,0.541-0.22,1.032-0.66,1.473
			c-0.44,0.439-0.931,0.66-1.473,0.66H2.633c-0.542,0-1.033-0.221-1.473-0.66C0.72,36.218,0.5,35.727,0.5,35.186v-17.37L4.969,4.814
			c0.542-1.422,1.591-2.133,3.148-2.133h23.765C33.44,2.682,34.489,3.393,35.031,4.814z M4.868,15.683h30.265l-3.25-9.751H8.118
			L4.868,15.683z M5.782,25.534c0.609,0.609,1.371,0.916,2.285,0.916c0.912,0,1.691-0.307,2.334-0.916
			c0.644-0.609,0.965-1.371,0.965-2.285s-0.321-1.693-0.965-2.336c-0.643-0.644-1.422-0.965-2.334-0.965
			c-0.914,0-1.676,0.321-2.285,0.965c-0.609,0.643-0.914,1.422-0.914,2.336S5.172,24.925,5.782,25.534z M29.598,25.534
			c0.643,0.609,1.422,0.916,2.336,0.916s1.676-0.307,2.285-0.916s0.914-1.371,0.914-2.285s-0.305-1.693-0.914-2.336
			c-0.609-0.644-1.371-0.965-2.285-0.965s-1.693,0.321-2.336,0.965c-0.644,0.643-0.965,1.422-0.965,2.336
			S28.954,24.925,29.598,25.534z"/>
	</g>
</g>
<g id="Layer_31" display="none">
	<g display="inline">
		<path fill="#444444" d="M35.031,4.814L39.5,17.815v17.37c0,0.541-0.22,1.032-0.66,1.473c-0.439,0.439-0.931,0.66-1.473,0.66
			h-2.234c-0.542,0-1.032-0.221-1.473-0.66c-0.44-0.44-0.66-0.932-0.66-1.473v-2.234H7v2.234c0,0.541-0.219,1.032-0.66,1.473
			c-0.439,0.439-0.931,0.66-1.473,0.66H2.633c-0.541,0-1.032-0.221-1.473-0.66c-0.439-0.44-0.66-0.932-0.66-1.473v-17.37
			L4.969,4.814c0.542-1.422,1.592-2.133,3.148-2.133h23.766C33.44,2.682,34.489,3.393,35.031,4.814z M4.867,15.683h30.266
			l-3.25-9.751H8.117L4.867,15.683z M5.781,25.534c0.609,0.609,1.371,0.916,2.285,0.916c0.912,0,1.691-0.307,2.334-0.916
			c0.645-0.609,0.965-1.371,0.965-2.285s-0.32-1.693-0.965-2.336c-0.643-0.644-1.422-0.965-2.334-0.965
			c-0.914,0-1.676,0.321-2.285,0.965c-0.609,0.643-0.914,1.422-0.914,2.336S5.172,24.925,5.781,25.534z M29.598,25.534
			c0.643,0.609,1.422,0.916,2.336,0.916s1.676-0.307,2.285-0.916s0.914-1.371,0.914-2.285s-0.305-1.693-0.914-2.336
			c-0.609-0.644-1.371-0.965-2.285-0.965s-1.693,0.321-2.336,0.965c-0.644,0.643-0.965,1.422-0.965,2.336
			S28.954,24.925,29.598,25.534z"/>
	</g>
</g>
<g id="Layer_32" display="none">
	<g display="inline">
		<path fill="#FFFFFF" d="M35.031,4.814L39.5,17.815v17.37c0,0.541-0.22,1.032-0.66,1.473c-0.439,0.439-0.931,0.66-1.473,0.66
			h-2.234c-0.542,0-1.032-0.221-1.473-0.66c-0.44-0.44-0.66-0.932-0.66-1.473v-2.234H7v2.234c0,0.541-0.219,1.032-0.66,1.473
			c-0.439,0.439-0.931,0.66-1.473,0.66H2.633c-0.541,0-1.032-0.221-1.473-0.66c-0.439-0.44-0.66-0.932-0.66-1.473v-17.37
			L4.969,4.814c0.542-1.422,1.592-2.133,3.148-2.133h23.766C33.44,2.682,34.489,3.393,35.031,4.814z M4.867,15.683h30.266
			l-3.25-9.751H8.117L4.867,15.683z M5.781,25.534c0.609,0.609,1.371,0.916,2.285,0.916c0.912,0,1.691-0.307,2.334-0.916
			c0.645-0.609,0.965-1.371,0.965-2.285s-0.32-1.693-0.965-2.336c-0.643-0.644-1.422-0.965-2.334-0.965
			c-0.914,0-1.676,0.321-2.285,0.965c-0.609,0.643-0.914,1.422-0.914,2.336S5.172,24.925,5.781,25.534z M29.598,25.534
			c0.643,0.609,1.422,0.916,2.336,0.916s1.676-0.307,2.285-0.916s0.914-1.371,0.914-2.285s-0.305-1.693-0.914-2.336
			c-0.609-0.644-1.371-0.965-2.285-0.965s-1.693,0.321-2.336,0.965c-0.644,0.643-0.965,1.422-0.965,2.336
			S28.954,24.925,29.598,25.534z"/>
	</g>
</g>
<g id="Layer_15" display="none">
	<g display="inline">
		<path d="M13.548,0.789C15.313,0.596,17.464,0.5,20,0.5c2.536,0,4.687,0.096,6.452,0.289c1.766,0.193,3.467,0.563,5.104,1.107
			c1.637,0.546,2.856,1.381,3.659,2.504c0.802,1.124,1.203,2.552,1.203,4.285v19.548c0,1.99-0.689,3.675-2.07,5.056
			c-1.38,1.38-3.065,2.07-5.055,2.07l3.081,3.081v1.06H7.723v-1.06l3.082-3.081c-1.991,0-3.692-0.69-5.104-2.07
			c-1.412-1.381-2.118-3.065-2.118-5.056V8.685c0-1.733,0.401-3.161,1.204-4.285c0.802-1.123,2.021-1.958,3.659-2.504
			C10.082,1.351,11.783,0.982,13.548,0.789z M17.93,18.989V8.685H7.723v10.304H17.93z M8.589,30.399
			c0.578,0.61,1.3,0.915,2.167,0.915c0.866,0,1.605-0.305,2.215-0.915c0.609-0.609,0.915-1.348,0.915-2.214
			c0-0.867-0.305-1.59-0.915-2.167c-0.61-0.578-1.349-0.866-2.215-0.866c-0.867,0-1.589,0.288-2.167,0.866
			c-0.578,0.577-0.866,1.3-0.866,2.167C7.723,29.052,8.011,29.79,8.589,30.399z M32.374,18.989V8.685H22.07v10.304H32.374z
			 M27.078,30.399c0.578,0.61,1.3,0.915,2.166,0.915c0.867,0,1.605-0.305,2.215-0.915c0.609-0.609,0.915-1.348,0.915-2.214
			c0-0.867-0.306-1.59-0.915-2.167c-0.609-0.578-1.348-0.866-2.215-0.866c-0.866,0-1.588,0.288-2.166,0.866
			c-0.578,0.577-0.867,1.3-0.867,2.167C26.211,29.052,26.5,29.79,27.078,30.399z"/>
	</g>
</g>
<g id="Layer_33" display="none">
	<g display="inline">
		<path fill="#444444" d="M13.548,0.789C15.313,0.596,17.464,0.5,20,0.5c2.536,0,4.687,0.096,6.452,0.289
			c1.766,0.193,3.467,0.563,5.104,1.107c1.637,0.546,2.856,1.381,3.659,2.504c0.802,1.124,1.203,2.552,1.203,4.285v19.548
			c0,1.99-0.689,3.675-2.07,5.056c-1.38,1.38-3.065,2.07-5.055,2.07l3.081,3.081v1.06H7.723v-1.06l3.082-3.081
			c-1.991,0-3.692-0.69-5.104-2.07c-1.412-1.381-2.118-3.065-2.118-5.056V8.685c0-1.733,0.401-3.161,1.204-4.285
			c0.802-1.123,2.021-1.958,3.659-2.504C10.082,1.351,11.783,0.982,13.548,0.789z M17.93,18.989V8.685H7.723v10.304H17.93z
			 M8.589,30.399c0.578,0.61,1.3,0.915,2.167,0.915c0.866,0,1.605-0.305,2.215-0.915c0.609-0.609,0.915-1.348,0.915-2.214
			c0-0.867-0.305-1.59-0.915-2.167c-0.61-0.578-1.349-0.866-2.215-0.866c-0.867,0-1.589,0.288-2.167,0.866
			c-0.578,0.577-0.866,1.3-0.866,2.167C7.723,29.052,8.011,29.79,8.589,30.399z M32.374,18.989V8.685H22.07v10.304H32.374z
			 M27.078,30.399c0.578,0.61,1.3,0.915,2.166,0.915c0.867,0,1.605-0.305,2.215-0.915c0.609-0.609,0.915-1.348,0.915-2.214
			c0-0.867-0.306-1.59-0.915-2.167c-0.609-0.578-1.348-0.866-2.215-0.866c-0.866,0-1.588,0.288-2.166,0.866
			c-0.578,0.577-0.867,1.3-0.867,2.167C26.211,29.052,26.5,29.79,27.078,30.399z"/>
	</g>
</g>
<g id="Layer_34">
	<g>
		<path fill="#66BB6A" d="M13.548,0.789C15.313,0.596,17.464,0.5,20,0.5c2.536,0,4.687,0.096,6.452,0.289
			c1.766,0.193,3.467,0.563,5.104,1.107c1.637,0.546,2.856,1.381,3.659,2.504c0.802,1.124,1.203,2.552,1.203,4.285v19.548
			c0,1.99-0.689,3.675-2.07,5.056c-1.38,1.38-3.065,2.07-5.055,2.07l3.081,3.081v1.06H7.723v-1.06l3.082-3.081
			c-1.991,0-3.692-0.69-5.104-2.07c-1.412-1.381-2.118-3.065-2.118-5.056V8.685c0-1.733,0.401-3.161,1.204-4.285
			c0.802-1.123,2.021-1.958,3.659-2.504C10.082,1.351,11.783,0.982,13.548,0.789z M17.93,18.989V8.685H7.723v10.304H17.93z
			 M8.589,30.399c0.578,0.61,1.3,0.915,2.167,0.915c0.866,0,1.605-0.305,2.215-0.915c0.609-0.609,0.915-1.348,0.915-2.214
			c0-0.867-0.305-1.59-0.915-2.167c-0.61-0.578-1.349-0.866-2.215-0.866c-0.867,0-1.589,0.288-2.167,0.866
			c-0.578,0.577-0.866,1.3-0.866,2.167C7.723,29.052,8.011,29.79,8.589,30.399z M32.374,18.989V8.685H22.07v10.304H32.374z
			 M27.078,30.399c0.578,0.61,1.3,0.915,2.166,0.915c0.867,0,1.605-0.305,2.215-0.915c0.609-0.609,0.915-1.348,0.915-2.214
			c0-0.867-0.306-1.59-0.915-2.167c-0.609-0.578-1.348-0.866-2.215-0.866c-0.866,0-1.588,0.288-2.166,0.866
			c-0.578,0.577-0.867,1.3-0.867,2.167C26.211,29.052,26.5,29.79,27.078,30.399z"/>
	</g>
</g>
<g id="Layer_16" display="none">
	<g display="inline">
		<path d="M2.861,22.78c1.574-1.574,3.491-2.361,5.751-2.361s4.177,0.787,5.751,2.361s2.361,3.491,2.361,5.751
			s-0.787,4.177-2.361,5.751s-3.491,2.361-5.751,2.361s-4.177-0.787-5.751-2.361S0.5,30.791,0.5,28.531S1.287,24.354,2.861,22.78z
			 M4.613,32.53c1.117,1.117,2.45,1.676,3.999,1.676s2.882-0.559,3.999-1.676s1.676-2.45,1.676-3.999s-0.559-2.882-1.676-3.999
			s-2.45-1.676-3.999-1.676s-2.882,0.559-3.999,1.676s-1.676,2.45-1.676,3.999S3.496,31.413,4.613,32.53z M18.02,17.981l3.58,3.732
			v10.055H18.4v-8.074l-5.256-4.57c-0.609-0.508-0.914-1.27-0.914-2.285c0-0.863,0.305-1.625,0.914-2.285l4.57-4.57
			c0.508-0.609,1.27-0.914,2.285-0.914c0.914,0,1.777,0.305,2.59,0.914l3.123,3.123c1.625,1.625,3.555,2.438,5.789,2.438v3.275
			c-3.25,0-5.992-1.143-8.227-3.428l-1.295-1.295L18.02,17.981z M27.96,8.879c-0.635,0.635-1.396,0.952-2.285,0.952
			s-1.65-0.317-2.285-0.952s-0.952-1.396-0.952-2.285s0.317-1.65,0.952-2.285s1.396-0.952,2.285-0.952s1.65,0.317,2.285,0.952
			s0.952,1.396,0.952,2.285S28.595,8.244,27.96,8.879z M25.637,22.78c1.574-1.574,3.491-2.361,5.751-2.361s4.177,0.787,5.751,2.361
			s2.361,3.491,2.361,5.751s-0.787,4.177-2.361,5.751s-3.491,2.361-5.751,2.361s-4.177-0.787-5.751-2.361s-2.361-3.491-2.361-5.751
			S24.063,24.354,25.637,22.78z M27.389,32.53c1.117,1.117,2.45,1.676,3.999,1.676s2.882-0.559,3.999-1.676s1.676-2.45,1.676-3.999
			s-0.559-2.882-1.676-3.999s-2.45-1.676-3.999-1.676s-2.882,0.559-3.999,1.676s-1.676,2.45-1.676,3.999S26.271,31.413,27.389,32.53
			z"/>
	</g>
</g>
<g id="Layer_17" display="none">
	<g display="inline">
		<path d="M39.5,17.867v4.266H8.828l7.719,7.82L13.5,33l-13-13l13-13l3.047,3.047l-7.719,7.82H39.5z"/>
	</g>
</g>
<g id="Layer_18" display="none">
	<g display="inline">
		<path d="M21.625,6.897L8.522,20l13.103,13.103l-4.011,4.012L0.5,20L17.614,2.886L21.625,6.897z"/>
		<path d="M39.5,6.897L26.397,20L39.5,33.103l-4.011,4.012L18.375,20L35.489,2.886L39.5,6.897z"/>
	</g>
</g>
<g id="Layer_19" display="none">
	<g display="inline">
		<path d="M21.538,25.405l-1.33,3.659l-5.488-5.488l-8.897,8.814l-2.495-2.495l8.981-8.897c-2.218-2.439-3.964-5.128-5.239-8.066
			h3.492c1.109,2.162,2.495,4.13,4.158,5.904c2.494-2.772,4.352-5.932,5.571-9.48H0.5V5.78h12.391V2.288h3.575V5.78h12.391v3.576
			H23.7c-1.33,4.324-3.521,8.177-6.569,11.559l-0.083,0.083L21.538,25.405z M31.517,16.424L39.5,37.712h-3.492l-1.996-5.321H25.53
			l-1.996,5.321h-3.492l7.982-21.288H31.517z M26.86,28.897h5.821l-2.911-7.733L26.86,28.897z"/>
	</g>
</g>
<g id="Layer_20" display="none">
	<g display="inline">
		<path d="M33.609,4.427c1.096,0,2.024,0.381,2.785,1.142c0.762,0.761,1.142,1.69,1.142,2.786v27.217
			c0,1.097-0.38,2.025-1.142,2.786c-0.761,0.761-1.689,1.142-2.785,1.142H6.391c-1.096,0-2.024-0.381-2.785-1.142
			s-1.142-1.689-1.142-2.786V8.355c0-1.096,0.381-2.025,1.142-2.786c0.761-0.761,1.689-1.142,2.785-1.142H8.31V0.5h3.927v3.927
			h15.527V0.5h3.927v3.927H33.609z M33.609,35.572V14.2H6.391v21.372H33.609z M10.228,18.036H20v9.773h-9.772V18.036z"/>
	</g>
</g>
<g id="Layer_21" display="none">
	<g display="inline">
		<path d="M33.609,4.427c1.096,0,2.026,0.381,2.785,1.142c0.762,0.762,1.142,1.69,1.142,2.786v27.217
			c0,1.097-0.38,2.026-1.142,2.786c-0.759,0.762-1.689,1.142-2.785,1.142H6.391c-1.096,0-2.023-0.38-2.785-1.142
			c-0.76-0.76-1.142-1.689-1.142-2.786V8.355c0-1.096,0.382-2.024,1.142-2.786c0.762-0.76,1.689-1.142,2.785-1.142H8.31V0.5h3.927
			v3.927h15.527V0.5h3.927v3.927H33.609z M33.609,35.572V14.2H6.391v21.372H33.609z M29.772,18.036v3.928H10.228v-3.928H29.772z
			 M23.928,25.891v3.837h-13.7v-3.837H23.928z"/>
	</g>
</g>
<g id="Layer_22" display="none">
	<g display="inline">
		<path fill="#444444" d="M6.313,35.655h27.373V39.5H6.313V35.655z M31.673,12.218c0,1.648-0.396,3.51-1.19,5.584
			c-0.793,2.076-1.769,4-2.93,5.768c-1.158,1.771-2.303,3.45-3.433,5.035c-1.128,1.588-2.089,2.81-2.884,3.662l-1.282,1.373
			c-0.303-0.303-0.715-0.761-1.235-1.373c-0.519-0.609-1.448-1.8-2.793-3.57c-1.342-1.769-2.531-3.493-3.57-5.173
			c-1.035-1.676-1.982-3.57-2.838-5.676c-0.853-2.105-1.281-3.982-1.281-5.63c0-3.234,1.144-5.997,3.433-8.285
			S16.722,0.5,19.954,0.5c3.235,0,5.997,1.145,8.285,3.433C30.528,6.222,31.673,8.984,31.673,12.218z M17.254,9.426
			c-0.762,0.764-1.145,1.679-1.145,2.746c0,1.069,0.383,1.984,1.145,2.747c0.764,0.764,1.679,1.145,2.746,1.145
			c1.07,0,1.985-0.38,2.746-1.145c0.765-0.762,1.145-1.678,1.145-2.747c0-1.067-0.38-1.982-1.145-2.746
			C21.985,8.664,21.07,8.282,20,8.282C18.933,8.282,18.018,8.664,17.254,9.426z"/>
	</g>
</g>
<g id="Layer_23" display="none">
	<g display="inline">
		<path fill="#444444" d="M6.176,6.222C9.992,2.408,14.599,0.5,20,0.5s10.011,1.908,13.824,5.722
			c3.816,3.815,5.722,8.408,5.722,13.778c0,5.373-1.905,9.965-5.722,13.778C30.011,37.592,25.401,39.5,20,39.5
			S9.992,37.592,6.176,33.778C2.362,29.965,0.454,25.373,0.454,20C0.454,14.63,2.362,10.037,6.176,6.222z M25.996,18.535
			c1.222-1.22,1.831-2.685,1.831-4.395c0-2.135-0.761-3.966-2.288-5.493C24.014,7.123,22.169,6.359,20,6.359
			c-2.166,0-4.011,0.764-5.539,2.289c-1.524,1.526-2.288,3.357-2.288,5.493h3.937c0-1.098,0.383-2.028,1.145-2.792
			c0.764-0.763,1.679-1.145,2.746-1.145c1.07,0,1.985,0.382,2.746,1.145c0.765,0.764,1.145,1.694,1.145,2.792
			c0,1.099-0.395,2.014-1.189,2.747l-2.381,2.472c-1.524,1.527-2.289,3.358-2.289,5.493v1.007h3.938
			c0-1.342,0.168-2.395,0.503-3.158c0.338-0.762,0.933-1.54,1.785-2.335L25.996,18.535z M21.969,33.641v-3.845h-3.938v3.845H21.969z
			"/>
	</g>
</g>
<g id="Layer_24" display="none">
	<g display="inline">
		<path fill="#444444" d="M35.609,0.5c1.099,0,2.031,0.382,2.792,1.145c0.764,0.764,1.145,1.664,1.145,2.701v23.436
			c0,1.099-0.381,2.031-1.145,2.793c-0.761,0.764-1.693,1.145-2.792,1.145H8.236L0.454,39.5V4.345c0-1.037,0.383-1.937,1.145-2.701
			C2.362,0.882,3.292,0.5,4.391,0.5H35.609z M31.673,12.218V8.282H8.236v3.937H31.673z M8.236,14.141v3.937h23.437v-3.937H8.236z
			 M23.891,23.937V20H8.236v3.937H23.891z"/>
	</g>
</g>
<g id="Layer_25" display="none">
	<g display="inline">
		<path fill="#404041" d="M0.5,10.296h39L20.091,29.704L0.5,10.296z"/>
	</g>
</g>
<g id="Layer_26" display="none">
	<g display="inline">
		<defs>
			<path id="SVGID_1_" d="M8.567,12.401c0,1.893,0.474,3.769,1.369,5.426l10.189,21.205l9.943-21.212
				c0.893-1.65,1.365-3.526,1.365-5.419c0-6.304-5.129-11.433-11.433-11.433C13.696,0.968,8.567,6.097,8.567,12.401"/>
		</defs>
		<clipPath id="SVGID_2_">
			<use xlink:href="#SVGID_1_"  overflow="visible"/>
		</clipPath>
		
			<linearGradient id="SVGID_3_" gradientUnits="userSpaceOnUse" x1="-40.5654" y1="124.9902" x2="-40.3782" y2="124.9902" gradientTransform="matrix(0 176.0028 176.0028 0 -21978.625 7142)">
			<stop  offset="0" style="stop-color:#FB7468"/>
			<stop  offset="1" style="stop-color:#D74038"/>
		</linearGradient>
		<rect x="8.567" y="0.968" clip-path="url(#SVGID_2_)" fill="url(#SVGID_3_)" width="22.867" height="38.064"/>
	</g>
	<g display="inline">
		<path fill="none" stroke="#5C1410" stroke-miterlimit="10" d="M30.068,17.82l-9.943,21.212L9.936,17.827
			c-0.896-1.657-1.368-3.534-1.368-5.426C8.567,6.097,13.695,0.968,20,0.968c6.304,0,11.433,5.129,11.433,11.433
			C31.433,14.293,30.96,16.17,30.068,17.82z"/>
		<path fill="#5C1410" d="M23.432,12.574c0,1.896-1.536,3.432-3.432,3.432s-3.433-1.537-3.433-3.432
			c0-1.895,1.537-3.432,3.433-3.432S23.432,10.679,23.432,12.574"/>
	</g>
</g>
<g id="Layer_27" display="none">
	<g display="inline">
		<path fill="#F9A41C" d="M20,23.788c10.77,0,19.5,2.655,19.5,5.931S30.77,35.65,20,35.65S0.5,32.994,0.5,29.719
			S9.23,23.788,20,23.788"/>
		<path fill="#F95D1C" d="M20,26.95c5.674,0,10.273,1.239,10.273,2.769s-4.6,2.77-10.273,2.77s-10.272-1.24-10.272-2.77
			S14.326,26.95,20,26.95"/>
		<path d="M22.109,7.943c0.42-0.402,0.63-0.887,0.63-1.453s-0.191-1.06-0.575-1.48c-0.383-0.42-0.858-0.64-1.424-0.658
			c-0.566-0.018-1.051,0.174-1.452,0.576c-0.402,0.402-0.611,0.887-0.63,1.453s0.164,1.061,0.548,1.48
			c0.383,0.42,0.857,0.64,1.424,0.658C21.196,8.537,21.689,8.345,22.109,7.943z M13.262,16.223c0,0.256,0.091,0.483,0.274,0.685
			c0.183,0.201,0.401,0.302,0.657,0.302c0.073,0,0.219-0.036,0.438-0.109l3.232-1.81c0.109-0.073,0.201-0.165,0.274-0.274
			l0.932-1.48l0.383,3.674l-3.287,11.242c0,0.036-0.009,0.082-0.027,0.137s-0.027,0.101-0.027,0.137c0,0.402,0.137,0.74,0.411,1.015
			c0.273,0.274,0.593,0.411,0.958,0.411c0.658,0.037,1.115-0.273,1.37-0.932l2.356-8.115l0.273,2.467
			c0,0.073,0.019,0.146,0.055,0.22c0.037,0.073,0.073,0.155,0.109,0.247c0.037,0.091,0.056,0.155,0.056,0.191L24,29.383
			c0.255,0.512,0.657,0.768,1.205,0.768c0.401,0.037,0.739-0.082,1.014-0.356c0.273-0.274,0.41-0.612,0.41-1.015
			c0-0.182-0.036-0.383-0.109-0.603l-2.137-4.771l-1.205-10.089l1.315,1.315l0.383,3.619c0.036,0.22,0.137,0.42,0.302,0.604
			c0.164,0.183,0.374,0.273,0.63,0.273s0.475-0.091,0.657-0.273c0.183-0.184,0.274-0.402,0.274-0.658v-0.109l-0.493-4.223
			c-0.037-0.183-0.109-0.347-0.22-0.493l-3.726-3.783c-0.438-0.402-0.895-0.604-1.369-0.604c-0.694,0-1.278,0.293-1.753,0.877
			l-2.466,3.948L13.7,15.455C13.408,15.637,13.262,15.894,13.262,16.223z"/>
	</g>
</g>
<g id="Layer_28" display="none">
	<g display="inline">
		<path d="M0.5,7h39v4.333h-39V7z M0.5,22.166v-4.333h39v4.333H0.5z M0.5,33v-4.333h39V33H0.5z"/>
	</g>
</g>
<g id="Layer_9" display="none">
	<g display="inline">
		<path fill="#1F70A8" d="M15.114,13.924l-3.229,1.275v6.118H8.232V12.82l9.431-3.994c0.17,0,0.411-0.028,0.721-0.084
			c0.312-0.056,0.555-0.085,0.723-0.085c1.246,0,2.266,0.594,3.059,1.784l1.869,2.89c0.736,1.304,1.799,2.366,3.188,3.186
			c1.387,0.822,2.902,1.232,4.545,1.232v3.569c-4.021,0-7.336-1.501-9.941-4.504l-1.103,5.438l3.824,3.654V39.5h-3.655V28.624
			l-3.739-3.653L13.839,39.5h-3.823L15.114,13.924z M25.48,4.111c0-0.991-0.354-1.84-1.061-2.549
			C23.709,0.854,22.848,0.5,21.826,0.5c-1.02,0-1.882,0.354-2.592,1.062c-0.707,0.709-1.061,1.559-1.061,2.549
			c0,0.992,0.354,1.841,1.061,2.549c0.71,0.709,1.572,1.062,2.592,1.062c1.021,0,1.883-0.353,2.594-1.062
			C25.127,5.952,25.48,5.103,25.48,4.111z"/>
	</g>
</g>
</svg>
